<?xml version="1.0" encoding="iso-8859-1"?>
<!-- Generator: Adobe Illustrator 19.0.0, SVG Export Plug-In . SVG Version: 6.00 Build 0)  -->
<svg version="1.1" id="Layer_1" xmlns="http://www.w3.org/2000/svg" xmlns:xlink="http://www.w3.org/1999/xlink" x="0px" y="0px"
	 viewBox="0 0 512.023 512.023" style="enable-background:new 0 0 512.023 512.023;" xml:space="preserve">
<g transform="translate(0 -1)">
	<g>
		<g>
			<path d="M435.212,103.423h-14.046l5.376-30.473c0.401-2.253-0.119-4.565-1.451-6.434c-1.323-1.86-3.337-3.115-5.598-3.473
				l-65.033-10.428l-4.625-43.947c-0.495-4.625-4.625-8.166-9.216-7.612L169.467,15.624c-2.278,0.188-4.395,1.297-5.854,3.063
				c-1.459,1.775-2.15,4.062-1.903,6.34l4.19,39.313L83.826,80.136c-4.582,0.887-7.603,5.282-6.793,9.873l2.364,13.414h-2.586
				c-14.114,0-25.6,11.486-25.6,25.6v34.133c0,13.466,10.479,24.414,23.697,25.404l28.698,239.13h304.811l28.698-239.13
				c13.218-0.99,23.697-11.938,23.697-25.404v-34.133C460.812,114.909,449.326,103.423,435.212,103.423z M314.158,63.436
				l31.147,4.992l62.933,10.086l-4.395,24.909h-96.734L314.158,63.436z M176.822,79.624h0.009l45.969-8.849l5.76,32.649H96.728
				l-1.425-8.107L176.822,79.624z M178.111,393.232c-0.247,0.026-0.503,0.034-0.751,0.034c-4.378,0-8.107-3.354-8.491-7.791
				l-13.38-153.02c-0.418-4.693,3.063-8.832,7.757-9.242c4.71-0.435,8.832,3.063,9.242,7.757l13.38,153.02
				C186.286,388.684,182.804,392.823,178.111,393.232z M264.545,385.023c0,4.719-3.823,8.533-8.533,8.533
				c-4.71,0-8.533-3.814-8.533-8.533v-153.6c0-4.719,3.823-8.533,8.533-8.533c4.71,0,8.533,3.814,8.533,8.533V385.023z
				 M356.534,232.456l-13.38,153.02c-0.384,4.437-4.113,7.791-8.491,7.791c-0.247,0-0.503-0.009-0.751-0.034
				c-4.693-0.41-8.175-4.548-7.757-9.242l13.38-153.02c0.41-4.693,4.557-8.201,9.242-7.757
				C353.471,223.624,356.952,227.762,356.534,232.456z M443.745,163.157c0,4.71-3.823,8.533-8.533,8.533h-5.692H82.503h-5.692
				c-4.702,0-8.533-3.823-8.533-8.533v-34.133c0-4.71,3.831-8.533,8.533-8.533h12.757h149.163h58.206h114.065h24.209
				c4.71,0,8.533,3.823,8.533,8.533V163.157z" />
			<path d="M111.033,489.548c1.092,13.167,12.305,23.475,25.515,23.475h238.933c13.21,0,24.414-10.308,25.481-23.168l5.41-45.099
				H105.657L111.033,489.548z"/>
		</g>
	</g>
</g>
<g>
</g>
<g>
</g>
<g>
</g>
<g>
</g>
<g>
</g>
<g>
</g>
<g>
</g>
<g>
</g>
<g>
</g>
<g>
</g>
<g>
</g>
<g>
</g>
<g>
</g>
<g>
</g>
<g>
</g>
</svg>
